<svg version="1.1" id="Layer_1" xmlns="http://www.w3.org/2000/svg" xmlns:xlink="http://www.w3.org/1999/xlink" x="0px" y="0px"
	 width="100%" viewBox="0 0 1024 576" enable-background="new 0 0 1024 576" xml:space="preserve">
<path fill="#000000" opacity="1.000000" stroke="none" 
	d="
M803.000000,577.000000 
	C608.642578,577.000000 414.285187,577.000000 219.538605,576.663330 
	C218.446457,570.744873 219.805801,564.771729 217.483002,559.601257 
	C215.259811,554.652405 215.778809,550.851501 218.833862,546.659485 
	C224.116501,539.410950 225.159149,531.402893 222.090439,522.931580 
	C220.560028,518.706848 218.358627,514.622131 217.522842,510.270081 
	C215.744110,501.007843 211.800613,492.784393 206.143570,485.511047 
	C200.751831,478.578827 199.576675,470.971710 199.639206,462.558655 
	C199.717117,452.077484 199.372345,441.537262 195.439011,431.550079 
	C194.111969,428.180603 193.894348,424.773407 194.797409,421.257538 
	C197.365631,411.258789 197.581116,400.828949 200.533783,390.864807 
	C201.647003,387.108063 201.776260,382.916565 201.611374,378.954132 
	C201.268494,370.713684 201.447098,362.503082 196.796860,354.830170 
	C192.925522,348.442444 190.677170,341.125977 192.348923,333.269348 
	C194.325333,323.980896 196.059570,314.639008 198.160355,305.379608 
	C199.718491,298.511993 202.309036,291.988831 206.529007,286.267456 
	C209.531387,282.196869 211.666458,277.757629 213.387131,273.013397 
	C218.252350,259.599060 225.987656,248.851898 240.622955,244.825729 
	C243.092987,244.146210 243.832504,242.794571 242.577606,240.364380 
	C238.604691,232.670563 238.638489,232.653061 244.153061,226.167862 
	C248.061722,221.571228 249.390396,215.068726 246.842178,210.875076 
	C244.513977,207.043549 242.113327,203.129440 239.073471,199.879456 
	C227.620331,187.634628 225.621674,173.200027 230.058044,157.953949 
	C234.221344,143.646347 243.369827,131.819595 253.630051,121.442787 
	C259.503113,115.502968 267.014832,110.967033 272.308075,104.315521 
	C280.315918,94.252815 289.179504,84.795189 294.509399,72.753166 
	C296.620941,67.982452 298.357178,62.437611 303.127899,59.569622 
	C308.480438,56.351852 312.999695,52.280411 317.460480,48.054123 
	C325.061432,40.852779 330.230316,31.361755 339.041534,25.265642 
	C340.977814,23.926010 341.936401,21.523466 342.279236,19.200499 
	C342.965820,14.547927 344.324127,10.112192 346.032532,5.765915 
	C346.765137,3.902170 347.033081,2.224331 345.000000,1.000000 
	C462.690765,1.000000 580.381531,1.000000 698.314819,1.166343 
	C697.528442,2.055139 696.763062,2.943236 697.361694,4.266932 
	C700.769409,11.802176 703.187805,19.882776 710.696594,24.895432 
	C715.386963,28.026564 719.895508,31.542068 724.023804,35.381668 
	C735.298584,45.868130 744.615601,57.989849 752.872131,70.966263 
	C757.340454,77.988983 761.358704,85.469368 766.812378,91.657028 
	C777.066956,103.291779 783.433960,117.341568 792.162598,129.890381 
	C796.461121,136.070160 797.746399,143.871460 802.470337,149.816055 
	C811.363647,161.007401 816.643433,174.260178 823.452637,186.617340 
	C831.562805,201.335724 838.530884,216.689270 848.148254,230.555984 
	C850.632141,234.137268 852.827454,237.841965 854.460999,241.878036 
	C860.563110,256.954865 864.997864,272.468109 865.666382,288.801453 
	C866.002441,297.013245 867.205566,305.042297 868.923096,313.033264 
	C872.756470,330.869110 875.458313,348.731049 872.098877,367.033081 
	C870.368347,376.461090 870.736206,385.917694 873.294189,395.266815 
	C876.483398,406.923096 874.884338,418.959381 871.384460,429.722473 
	C864.821167,449.906281 859.743347,469.982727 860.844299,491.345795 
	C861.248413,499.187744 858.965088,506.456848 855.329041,513.389832 
	C851.428528,520.827209 844.904724,526.447266 841.136658,533.895447 
	C836.771240,542.524353 830.200134,548.784729 822.211548,553.980225 
	C817.982178,556.730835 813.427551,558.721741 809.017517,561.052795 
	C802.854187,564.310669 800.742554,569.959412 803.000000,577.000000 
M377.622925,432.657867 
	C498.274384,432.666290 618.925842,432.677094 739.577332,432.677490 
	C746.994873,432.677521 747.445801,431.912231 743.778381,425.542786 
	C733.055176,406.918945 722.231873,388.352142 711.624573,369.662659 
	C709.697205,366.266846 707.260864,365.261566 703.539429,365.264526 
	C605.883606,365.342621 508.227692,365.352081 410.571899,365.267303 
	C406.402557,365.263672 403.820648,366.605286 401.745941,370.269867 
	C391.733490,387.954987 381.480743,405.503906 371.365143,423.130890 
	C365.932190,432.598022 365.979340,432.625092 377.622925,432.657867 
M558.026550,237.553467 
	C579.824402,275.361267 601.673218,313.139954 623.347290,351.018555 
	C625.714050,355.154846 628.470642,356.740875 633.289917,356.675079 
	C652.781128,356.408844 672.278564,356.635651 691.772766,356.521515 
	C695.128967,356.501831 699.656616,358.153351 701.528931,354.751404 
	C703.355225,351.433075 699.706482,348.354462 698.025146,345.432953 
	C671.605591,299.525787 645.104614,253.665451 618.624268,207.793274 
	C585.148560,149.802872 551.680969,91.807777 518.174011,33.835400 
	C516.961304,31.737177 515.987305,29.309681 513.450317,28.319923 
	C511.009491,29.042284 510.164673,31.158335 509.105286,32.989166 
	C498.595276,51.153034 488.224701,69.398682 477.564758,87.473801 
	C475.224182,91.442505 475.318573,94.600372 477.589355,98.511406 
	C504.351257,144.604675 530.987854,190.770676 558.026550,237.553467 
M383.334106,250.747528 
	C348.629272,310.789795 313.924469,370.832062 279.361023,430.629700 
	C281.710052,433.375610 284.034424,432.633698 286.088715,432.638763 
	C306.911072,432.690186 327.736725,432.465179 348.554169,432.786835 
	C354.144073,432.873199 357.205139,431.012512 359.967072,426.181793 
	C388.399750,376.451813 417.050690,326.846497 445.680450,277.229279 
	C465.322327,243.188507 485.027283,209.184128 504.702087,175.162338 
	C506.538940,171.986023 508.240326,169.203232 505.808350,165.109680 
	C494.752380,146.499954 484.087219,127.658424 473.222229,108.934631 
	C470.015320,103.408119 468.400665,103.468971 465.151764,109.092827 
	C437.996887,156.097595 410.856415,203.110657 383.334106,250.747528 
M525.374329,507.145874 
	C531.500305,508.297394 538.078369,506.827148 543.786011,510.602997 
	C545.336548,511.628723 546.231079,510.145660 547.088928,508.657928 
	C548.634277,505.977783 555.054443,504.225677 556.705383,506.245209 
	C559.890625,510.141632 561.726257,508.737030 563.854309,505.446228 
	C565.186951,503.385315 567.481873,502.603912 569.715576,501.871246 
	C572.877869,500.834076 576.372253,500.264587 578.878174,498.048920 
	C582.825256,494.559174 587.536743,493.284271 592.422302,492.119751 
	C599.107239,490.526337 600.240540,487.501648 596.086609,481.861694 
	C593.424500,478.247345 590.402039,474.971161 589.346741,470.361420 
	C588.769348,467.839172 586.571472,467.392456 584.142883,467.708435 
	C580.096436,468.234863 576.339539,469.717255 572.896240,471.685455 
	C565.933105,475.665558 558.515076,476.658966 550.713806,476.067963 
	C547.546265,475.828003 544.385803,475.792206 541.305542,476.769928 
	C526.589905,481.440857 511.512329,481.656708 496.308228,480.492340 
	C486.543793,479.744537 476.807953,477.787659 466.966034,479.859589 
	C463.634644,480.560944 461.718811,482.425568 460.962341,485.714264 
	C460.163574,489.186920 459.397369,492.395935 462.667755,495.334808 
	C468.884399,500.921356 475.622406,504.903870 484.213684,505.774506 
	C491.206573,506.483124 498.097321,506.971924 505.111389,506.107056 
	C511.581787,505.309265 518.083984,505.566040 525.374329,507.145874 
M305.034637,186.547134 
	C296.243103,200.010071 294.274109,215.767899 290.240753,230.818619 
	C289.344910,234.161606 288.904968,237.696365 288.810028,241.158051 
	C288.753876,243.204788 289.683685,246.378693 292.622162,244.525711 
	C300.545380,239.529327 309.799500,235.985062 314.222595,226.728500 
	C316.946350,221.028275 320.449341,215.514557 322.059296,209.503784 
	C326.411682,193.254181 333.357361,178.330994 342.125122,164.050522 
	C345.870148,157.950790 347.989105,150.926392 347.878082,143.601181 
	C347.789215,137.737488 340.355347,133.247269 335.643616,136.309280 
	C332.572998,138.304794 329.424683,139.415192 325.941925,139.851593 
	C321.300171,140.433197 319.628876,143.044296 320.413483,147.485611 
	C320.912384,150.309998 321.085388,153.117630 319.968048,155.848221 
	C315.741943,166.175964 311.274139,176.387589 305.034637,186.547134 
M548.155457,514.337341 
	C545.272949,514.170227 543.358582,515.493835 542.588867,518.234863 
	C542.130554,519.867188 542.839050,521.338562 544.414856,521.876038 
	C547.343872,522.875122 549.827637,521.421936 551.363525,519.247437 
	C553.176147,516.681030 550.869568,515.471497 548.155457,514.337341 
z"/>
</svg>